999
DXF from OpenSCAD
  0
SECTION
  2
HEADER
  9
$ACADVER
  1
AC1006
  9
$INSBASE
 10
0.0
 20
0.0
 30
0.0
  9
$EXTMIN
 10
-157.061
 20
0
  9
$EXTMAX
 10
157.061
 20
625
  9
$LINMIN
 10
-157.061
 20
0
  9
$LINMAX
 10
157.061
 20
625
  0
ENDSEC
  0
SECTION
  2
TABLES
  0
TABLE
  2
LTYPE
 70
1
  0
LTYPE
  2
CONTINUOUS
 70
64
  3
Solid line
 72
65
 73
0
 40
0.000000
  0
ENDTAB
  0
TABLE
  2
LAYER
 70
6
  0
LAYER
  2
0
 70
64
 62
7
  6
CONTINUOUS
  0
ENDTAB
  0
TABLE
  2
STYLE
 70
0
  0
ENDTAB
  0
ENDSEC
  0
SECTION
  2
BLOCKS
  0
ENDSEC
  0
SECTION
  2
ENTITIES
  0
LWPOLYLINE
100
AcDbEntity
  8
0
100
AcDbPolyline
 90
34
 70
1
 10
156.885
 20
20.2115
 10
156.539
 20
33.4189
 10
155.963
 20
46.6183
 10
155.156
 20
59.8057
 10
154.12
 20
72.9769
 10
152.853
 20
86.1281
 10
151.358
 20
99.2551
 10
149.633
 20
112.354
 10
147.68
 20
125.421
 10
145.5
 20
138.452
 10
143.092
 20
151.442
 10
140.458
 20
164.389
 10
137.598
 20
177.288
 10
134.514
 20
190.135
 10
131.221
 20
202.868
 10
21.9183
 20
625
 10
-21.9183
 20
625
 10
-131.221
 20
202.868
 10
-134.514
 20
190.135
 10
-137.598
 20
177.288
 10
-140.458
 20
164.389
 10
-143.092
 20
151.442
 10
-145.5
 20
138.452
 10
-147.68
 20
125.421
 10
-149.633
 20
112.354
 10
-151.358
 20
99.2551
 10
-152.853
 20
86.1281
 10
-154.12
 20
72.9769
 10
-155.156
 20
59.8057
 10
-155.963
 20
46.6183
 10
-156.539
 20
33.4189
 10
-156.885
 20
20.2115
 10
-157.061
 20
0
 10
157.061
 20
0
  0
ENDSEC
  0
EOF
