999
DXF from OpenSCAD
  0
SECTION
  2
HEADER
  9
$ACADVER
  1
AC1006
  9
$INSBASE
 10
0.0
 20
0.0
 30
0.0
  9
$EXTMIN
 10
-99.1485
 20
0
  9
$EXTMAX
 10
99.1485
 20
194.552
  9
$LINMIN
 10
-99.1485
 20
0
  9
$LINMAX
 10
99.1485
 20
194.552
  0
ENDSEC
  0
SECTION
  2
TABLES
  0
TABLE
  2
LTYPE
 70
1
  0
LTYPE
  2
CONTINUOUS
 70
64
  3
Solid line
 72
65
 73
0
 40
0.000000
  0
ENDTAB
  0
TABLE
  2
LAYER
 70
6
  0
LAYER
  2
0
 70
64
 62
7
  6
CONTINUOUS
  0
ENDTAB
  0
TABLE
  2
STYLE
 70
0
  0
ENDTAB
  0
ENDSEC
  0
SECTION
  2
BLOCKS
  0
ENDSEC
  0
SECTION
  2
ENTITIES
  0
LWPOLYLINE
100
AcDbEntity
  8
0
100
AcDbPolyline
 90
125
 70
1
 10
99.0681
 20
9.20776
 10
98.9841
 20
12.4145
 10
98.8442
 20
15.6194
 10
98.6484
 20
18.8213
 10
98.3967
 20
22.0192
 10
98.0892
 20
25.2124
 10
97.7261
 20
28.3996
 10
97.3074
 20
31.58
 10
96.8332
 20
34.7527
 10
96.3038
 20
37.9166
 10
95.7192
 20
41.0707
 10
95.0796
 20
44.2142
 10
94.3853
 20
47.3461
 10
93.6364
 20
50.4653
 10
92.8332
 20
53.571
 10
91.976
 20
56.6622
 10
91.0649
 20
59.738
 10
90.1003
 20
62.7974
 10
89.0824
 20
65.8395
 10
88.0116
 20
68.8634
 10
86.8882
 20
71.8681
 10
85.7125
 20
74.8528
 10
84.4849
 20
77.8165
 10
83.2057
 20
80.7583
 10
81.8754
 20
83.6773
 10
80.4944
 20
86.5727
 10
79.0631
 20
89.4436
 10
77.5818
 20
92.289
 10
76.0512
 20
95.1081
 10
74.4825
 20
97.8807
 10
18.5041
 20
194.552
 10
12.8749
 20
191.236
 10
12.4837
 20
191.015
 10
12.0888
 20
190.8
 10
11.6902
 20
190.593
 10
11.288
 20
190.392
 10
10.8823
 20
190.199
 10
10.4734
 20
190.012
 10
10.0612
 20
189.833
 10
9.64603
 20
189.661
 10
9.22789
 20
189.496
 10
8.80694
 20
189.339
 10
8.38331
 20
189.189
 10
7.95712
 20
189.046
 10
7.5285
 20
188.911
 10
7.0976
 20
188.784
 10
6.66453
 20
188.663
 10
6.22943
 20
188.551
 10
5.79244
 20
188.446
 10
5.35368
 20
188.349
 10
4.91329
 20
188.259
 10
4.4714
 20
188.177
 10
4.02815
 20
188.103
 10
3.58368
 20
188.037
 10
3.13811
 20
187.978
 10
2.69158
 20
187.927
 10
2.24424
 20
187.884
 10
1.79621
 20
187.849
 10
1.34764
 20
187.821
 10
0.898654
 20
187.802
 10
0.449395
 20
187.79
 10
0
 20
187.786
 10
-0.449395
 20
187.79
 10
-0.898654
 20
187.802
 10
-1.34764
 20
187.821
 10
-1.79621
 20
187.849
 10
-2.24424
 20
187.884
 10
-2.69158
 20
187.927
 10
-3.13811
 20
187.978
 10
-3.58368
 20
188.037
 10
-4.02815
 20
188.103
 10
-4.4714
 20
188.177
 10
-4.91329
 20
188.259
 10
-5.35368
 20
188.349
 10
-5.79244
 20
188.446
 10
-6.22943
 20
188.551
 10
-6.66453
 20
188.663
 10
-7.0976
 20
188.784
 10
-7.5285
 20
188.911
 10
-7.95712
 20
189.046
 10
-8.38331
 20
189.189
 10
-8.80694
 20
189.339
 10
-9.22789
 20
189.496
 10
-9.64603
 20
189.661
 10
-10.0612
 20
189.833
 10
-10.4734
 20
190.012
 10
-10.8823
 20
190.199
 10
-11.288
 20
190.392
 10
-11.6902
 20
190.593
 10
-12.0888
 20
190.8
 10
-12.4837
 20
191.015
 10
-12.8749
 20
191.236
 10
-18.5041
 20
194.552
 10
-74.4825
 20
97.8807
 10
-76.0512
 20
95.1081
 10
-77.5818
 20
92.289
 10
-79.0631
 20
89.4436
 10
-80.4944
 20
86.5727
 10
-81.8754
 20
83.6773
 10
-83.2057
 20
80.7583
 10
-84.4849
 20
77.8165
 10
-85.7125
 20
74.8528
 10
-86.8882
 20
71.8681
 10
-88.0116
 20
68.8634
 10
-89.0824
 20
65.8395
 10
-90.1003
 20
62.7974
 10
-91.0649
 20
59.738
 10
-91.976
 20
56.6622
 10
-92.8332
 20
53.571
 10
-93.6364
 20
50.4653
 10
-94.3853
 20
47.3461
 10
-95.0796
 20
44.2142
 10
-95.7192
 20
41.0707
 10
-96.3038
 20
37.9166
 10
-96.8332
 20
34.7527
 10
-97.3074
 20
31.58
 10
-97.7261
 20
28.3996
 10
-98.0892
 20
25.2124
 10
-98.3967
 20
22.0192
 10
-98.6484
 20
18.8213
 10
-98.8442
 20
15.6194
 10
-98.9841
 20
12.4145
 10
-99.0681
 20
9.20776
 10
-99.1485
 20
0
 10
99.1485
 20
0
  0
ENDSEC
  0
EOF
