999
DXF from OpenSCAD
  0
SECTION
  2
HEADER
  9
$ACADVER
  1
AC1006
  9
$INSBASE
 10
0.0
 20
0.0
 30
0.0
  9
$EXTMIN
 10
-133.061
 20
0
  9
$EXTMAX
 10
133.061
 20
475
  9
$LINMIN
 10
-133.061
 20
0
  9
$LINMAX
 10
133.061
 20
475
  0
ENDSEC
  0
SECTION
  2
TABLES
  0
TABLE
  2
LTYPE
 70
1
  0
LTYPE
  2
CONTINUOUS
 70
64
  3
Solid line
 72
65
 73
0
 40
0.000000
  0
ENDTAB
  0
TABLE
  2
LAYER
 70
6
  0
LAYER
  2
0
 70
64
 62
7
  6
CONTINUOUS
  0
ENDTAB
  0
TABLE
  2
STYLE
 70
0
  0
ENDTAB
  0
ENDSEC
  0
SECTION
  2
BLOCKS
  0
ENDSEC
  0
SECTION
  2
ENTITIES
  0
LWPOLYLINE
100
AcDbEntity
  8
0
100
AcDbPolyline
 90
38
 70
1
 10
132.903
 20
18.1172
 10
132.612
 20
29.231
 10
132.127
 20
40.338
 10
131.449
 20
51.4349
 10
130.576
 20
62.5182
 10
129.511
 20
73.5847
 10
128.252
 20
84.6308
 10
126.801
 20
95.6533
 10
125.158
 20
106.649
 10
123.323
 20
117.614
 10
121.297
 20
128.545
 10
119.08
 20
139.44
 10
116.674
 20
150.294
 10
114.079
 20
161.104
 10
111.295
 20
171.868
 10
108.324
 20
182.581
 10
105.182
 20
193.188
 10
21.2185
 20
475
 10
-21.2185
 20
475
 10
-105.182
 20
193.188
 10
-108.324
 20
182.581
 10
-111.295
 20
171.868
 10
-114.079
 20
161.104
 10
-116.674
 20
150.294
 10
-119.08
 20
139.44
 10
-121.297
 20
128.545
 10
-123.323
 20
117.614
 10
-125.158
 20
106.649
 10
-126.801
 20
95.6533
 10
-128.252
 20
84.6308
 10
-129.511
 20
73.5847
 10
-130.576
 20
62.5182
 10
-131.449
 20
51.4349
 10
-132.127
 20
40.338
 10
-132.612
 20
29.231
 10
-132.903
 20
18.1172
 10
-133.061
 20
0
 10
133.061
 20
0
  0
ENDSEC
  0
EOF
