999
DXF from OpenSCAD
  0
SECTION
  2
HEADER
  9
$ACADVER
  1
AC1006
  9
$INSBASE
 10
0.0
 20
0.0
 30
0.0
  9
$EXTMIN
 10
-107.061
 20
0
  9
$EXTMAX
 10
107.061
 20
325
  9
$LINMIN
 10
-107.061
 20
0
  9
$LINMAX
 10
107.061
 20
325
  0
ENDSEC
  0
SECTION
  2
TABLES
  0
TABLE
  2
LTYPE
 70
1
  0
LTYPE
  2
CONTINUOUS
 70
64
  3
Solid line
 72
65
 73
0
 40
0.000000
  0
ENDTAB
  0
TABLE
  2
LAYER
 70
6
  0
LAYER
  2
0
 70
64
 62
7
  6
CONTINUOUS
  0
ENDTAB
  0
TABLE
  2
STYLE
 70
0
  0
ENDTAB
  0
ENDSEC
  0
SECTION
  2
BLOCKS
  0
ENDSEC
  0
SECTION
  2
ENTITIES
  0
LWPOLYLINE
100
AcDbEntity
  8
0
100
AcDbPolyline
 90
46
 70
1
 10
106.923
 20
15.8484
 10
106.691
 20
24.6941
 10
106.305
 20
33.5343
 10
105.765
 20
42.3666
 10
105.071
 20
51.188
 10
104.223
 20
59.996
 10
103.221
 20
68.7878
 10
102.066
 20
77.5608
 10
100.758
 20
86.3123
 10
99.2978
 20
95.0397
 10
97.6852
 20
103.74
 10
95.9211
 20
112.411
 10
94.0059
 20
121.05
 10
91.9402
 20
129.654
 10
89.7247
 20
138.221
 10
87.3599
 20
146.748
 10
84.8468
 20
155.233
 10
82.1859
 20
163.672
 10
79.3782
 20
172.063
 10
76.4244
 20
180.404
 10
73.3266
 20
188.69
 10
19.7706
 20
325
 10
-19.7706
 20
325
 10
-73.3266
 20
188.69
 10
-76.4244
 20
180.404
 10
-79.3782
 20
172.063
 10
-82.1859
 20
163.672
 10
-84.8468
 20
155.233
 10
-87.3599
 20
146.748
 10
-89.7247
 20
138.221
 10
-91.9402
 20
129.654
 10
-94.0059
 20
121.05
 10
-95.9211
 20
112.411
 10
-97.6852
 20
103.74
 10
-99.2978
 20
95.0397
 10
-100.758
 20
86.3123
 10
-102.066
 20
77.5608
 10
-103.221
 20
68.7878
 10
-104.223
 20
59.996
 10
-105.071
 20
51.188
 10
-105.765
 20
42.3666
 10
-106.305
 20
33.5343
 10
-106.691
 20
24.6941
 10
-106.923
 20
15.8484
 10
-107.061
 20
0
 10
107.061
 20
0
  0
ENDSEC
  0
EOF
